<svg width="200" height="200" viewBox="0 0 200 200" fill="none" xmlns="http://www.w3.org/2000/svg">
<path d="M100 0C119.778 2.35852e-07 139.112 5.8649 155.557 16.8531C172.002 27.8412 184.819 43.4591 192.388 61.7317C199.957 80.0043 201.937 100.111 198.079 119.509C194.22 138.907 184.696 156.726 170.711 170.711C156.725 184.696 138.907 194.22 119.509 198.079C100.111 201.937 80.0041 199.957 61.7315 192.388C43.4589 184.819 27.8411 172.002 16.8529 155.557C5.86483 139.112 -3.81953e-05 119.778 1.86466e-10 99.9998L100 100V0Z" fill="#D8315B"/>
<path d="M100 0C80.2219 -2.35852e-07 60.8879 5.8649 44.443 16.853C27.9981 27.8412 15.1808 43.459 7.61205 61.7317C0.0432836 80.0043 -1.93705 100.111 1.92147 119.509C5.77999 138.907 15.3041 156.725 29.2893 170.711C43.2746 184.696 61.0929 194.22 80.491 198.079C99.8891 201.937 119.996 199.957 138.268 192.388C156.541 184.819 172.159 172.002 183.147 155.557C194.135 139.112 200 119.778 200 100H100V0Z" fill="#10B981"/>
<path d="M100 0C73.4784 -3.16267e-07 48.043 10.5357 29.2893 29.2893C10.5357 48.043 2.3186e-06 73.4783 0 100C-2.3186e-06 126.522 10.5357 151.957 29.2893 170.711C48.0429 189.464 73.4783 200 100 200L100 100V0Z" fill="#3B82F6"/>
<path d="M100 0C86.8678 -1.566e-07 73.8642 2.58658 61.7317 7.61205C49.5991 12.6375 38.5752 20.0035 29.2893 29.2893C20.0035 38.5752 12.6375 49.5991 7.61204 61.7317C2.58657 73.8642 -1.9829e-06 86.8678 0 100L100 100V0Z" fill="#FFA000"/>
<path d="M100 50L120.153 79.8475L150 100L120.153 120.153L100 150L79.8475 120.153L50 100L79.8475 79.8475L100 50Z" fill="white"/>
</svg>
