<svg width="275" height="45" viewBox="0 0 275 45" fill="none" xmlns="http://www.w3.org/2000/svg">
<path d="M93.192 6.16001V40H83.784V21.328L77.4 40H69.528L63.096 21.184V40H53.688V6.16001H65.064L73.56 28.144L81.864 6.16001H93.192Z" fill="black"/>
<path d="M97.0114 26.512C97.0114 23.728 97.5074 21.296 98.4994 19.216C99.5234 17.136 100.899 15.536 102.627 14.416C104.387 13.296 106.339 12.736 108.483 12.736C110.339 12.736 111.939 13.104 113.283 13.84C114.627 14.576 115.667 15.568 116.403 16.816V13.072H125.811V40H116.403V36.256C115.667 37.504 114.611 38.496 113.235 39.232C111.891 39.968 110.307 40.336 108.483 40.336C106.339 40.336 104.387 39.776 102.627 38.656C100.899 37.536 99.5234 35.936 98.4994 33.856C97.5074 31.744 97.0114 29.296 97.0114 26.512ZM116.403 26.512C116.403 24.784 115.923 23.424 114.963 22.432C114.035 21.44 112.883 20.944 111.507 20.944C110.099 20.944 108.931 21.44 108.003 22.432C107.075 23.392 106.611 24.752 106.611 26.512C106.611 28.24 107.075 29.616 108.003 30.64C108.931 31.632 110.099 32.128 111.507 32.128C112.883 32.128 114.035 31.632 114.963 30.64C115.923 29.648 116.403 28.272 116.403 26.512Z" fill="black"/>
<path d="M147.06 31.984V40H142.98C136.1 40 132.66 36.592 132.66 29.776V20.896H129.348V13.072H132.66V6.54401H142.116V13.072H147.012V20.896H142.116V29.92C142.116 30.656 142.276 31.184 142.596 31.504C142.948 31.824 143.524 31.984 144.324 31.984H147.06Z" fill="black"/>
<path d="M177.104 26.224C177.104 26.96 177.056 27.696 176.96 28.432H159.152C159.247 29.904 159.648 31.008 160.352 31.744C161.088 32.448 162.016 32.8 163.136 32.8C164.704 32.8 165.824 32.096 166.496 30.688H176.528C176.112 32.544 175.296 34.208 174.08 35.68C172.896 37.12 171.392 38.256 169.568 39.088C167.743 39.92 165.728 40.336 163.52 40.336C160.864 40.336 158.496 39.776 156.416 38.656C154.368 37.536 152.752 35.936 151.568 33.856C150.416 31.776 149.84 29.328 149.84 26.512C149.84 23.696 150.416 21.264 151.568 19.216C152.719 17.136 154.32 15.536 156.368 14.416C158.448 13.296 160.832 12.736 163.52 12.736C166.176 12.736 168.528 13.28 170.576 14.368C172.624 15.456 174.224 17.024 175.376 19.072C176.528 21.088 177.104 23.472 177.104 26.224ZM167.504 23.872C167.504 22.72 167.12 21.824 166.352 21.184C165.584 20.512 164.624 20.176 163.472 20.176C162.32 20.176 161.376 20.496 160.64 21.136C159.904 21.744 159.424 22.656 159.2 23.872H167.504Z" fill="black"/>
<path d="M216.138 12.832C219.53 12.832 222.186 13.856 224.106 15.904C226.058 17.952 227.034 20.752 227.034 24.304V40H217.626V25.552C217.626 24.112 217.226 22.992 216.426 22.192C215.626 21.392 214.538 20.992 213.162 20.992C211.786 20.992 210.698 21.392 209.898 22.192C209.098 22.992 208.698 24.112 208.698 25.552V40H199.29V25.552C199.29 24.112 198.89 22.992 198.09 22.192C197.322 21.392 196.25 20.992 194.874 20.992C193.466 20.992 192.362 21.392 191.562 22.192C190.762 22.992 190.362 24.112 190.362 25.552V40H180.954V13.072H190.362V16.624C191.194 15.472 192.266 14.56 193.578 13.888C194.922 13.184 196.458 12.832 198.186 12.832C200.17 12.832 201.93 13.264 203.466 14.128C205.034 14.992 206.266 16.208 207.162 17.776C208.122 16.304 209.386 15.12 210.954 14.224C212.522 13.296 214.25 12.832 216.138 12.832Z" fill="black"/>
<path d="M236.94 10.576C235.276 10.576 233.932 10.128 232.908 9.23201C231.916 8.30401 231.42 7.15201 231.42 5.776C231.42 4.36801 231.916 3.20001 232.908 2.27201C233.932 1.34401 235.276 0.880005 236.94 0.880005C238.572 0.880005 239.884 1.34401 240.876 2.27201C241.9 3.20001 242.412 4.36801 242.412 5.776C242.412 7.15201 241.9 8.30401 240.876 9.23201C239.884 10.128 238.572 10.576 236.94 10.576ZM241.596 13.072V40H232.188V13.072H241.596Z" fill="black"/>
<path d="M263.754 40L258.906 33.232L255.066 40H244.746L253.722 26.032L244.362 13.072H254.922L259.77 19.84L263.658 13.072H273.978L264.81 26.8L274.314 40H263.754Z" fill="black"/>
<path d="M22 1.00001C26.3512 1.00001 30.6047 2.29029 34.2226 4.70768C37.8404 7.12507 40.6602 10.561 42.3254 14.581C43.9905 18.601 44.4262 23.0244 43.5773 27.292C42.7284 31.5596 40.6331 35.4796 37.5563 38.5564C34.4796 41.6331 30.5596 43.7284 26.292 44.5773C22.0244 45.4262 17.6009 44.9905 13.5809 43.3253C9.56097 41.6602 6.12504 38.8404 3.70766 35.2225C1.29027 31.6046 1.49968e-06 27.3512 9.90269e-06 23L22 23V1.00001Z" fill="#D8315B"/>
<path d="M22 1.00001C17.6488 1.00001 13.3953 2.29029 9.77746 4.70768C6.15958 7.12507 3.33979 10.561 1.67466 14.581C0.00953233 18.6009 -0.426141 23.0244 0.422734 27.292C1.27161 31.5596 3.36691 35.4796 6.44366 38.5564C9.52042 41.6331 13.4404 43.7284 17.708 44.5773C21.9756 45.4262 26.3991 44.9905 30.419 43.3254C34.439 41.6602 37.875 38.8404 40.2923 35.2226C42.7097 31.6047 44 27.3512 44 23H22V1.00001Z" fill="#10B981"/>
<path d="M22 1.00001C16.1652 1.00001 10.5695 3.31786 6.44366 7.44366C2.31786 11.5695 1.04128e-05 17.1652 9.90269e-06 23C9.3926e-06 28.8347 2.31786 34.4306 6.44366 38.5564C10.5695 42.6822 16.1652 45 22 45L22 23V1.00001Z" fill="#3B82F6"/>
<path d="M22 1.00001C19.1109 1.00001 16.2501 1.56905 13.581 2.67466C10.9118 3.78026 8.48655 5.40077 6.44366 7.44366C4.40077 9.48655 2.78026 11.9118 1.67466 14.581C0.569057 17.2501 9.46645e-06 20.1109 9.90269e-06 23L22 23V1.00001Z" fill="#FFA000"/>
<path d="M22 12L26.4336 18.5664L33 23L26.4336 27.4336L22 34L17.5665 27.4336L11 23L17.5665 18.5664L22 12Z" fill="white"/>
</svg>
